<svg width="636" height="528" viewBox="0 0 636 528" fill="none" xmlns="http://www.w3.org/2000/svg">
<path d="M260.424 2.79502C260.658 4.20056 262.116 5.28401 263.68 5.21496C265.245 5.14591 266.324 3.95052 266.09 2.54497C265.856 1.13942 264.398 0.0559751 262.833 0.125024C261.268 0.194073 260.19 1.38947 260.424 2.79502Z" fill="#C9A96C" fill-opacity="0.7"/>
<path d="M452.424 7.79502C452.658 9.20056 454.116 10.284 455.68 10.215C457.245 10.1459 458.324 8.95052 458.09 7.54497C457.856 6.13942 456.398 5.05598 454.833 5.12502C453.268 5.19407 452.19 6.38947 452.424 7.79502Z" fill="#C9A96C" fill-opacity="0.8"/>
<path d="M517.424 443.795C517.658 445.201 519.116 446.284 520.68 446.215C522.245 446.146 523.324 444.951 523.09 443.545C522.856 442.139 521.398 441.056 519.833 441.125C518.268 441.194 517.19 442.389 517.424 443.795Z" fill="#C9A96C" fill-opacity="0.6"/>
<path d="M47.4236 489.795C47.6575 491.201 49.1156 492.284 50.6803 492.215C52.245 492.146 53.3237 490.951 53.0898 489.545C52.8558 488.139 51.3978 487.056 49.8331 487.125C48.2684 487.194 47.1896 488.389 47.4236 489.795Z" fill="#C9A96C" fill-opacity="0.6"/>
<path d="M0.423568 101.795C0.657511 103.201 2.11559 104.284 3.68027 104.215C5.24495 104.146 6.32373 102.951 6.08979 101.545C5.85585 100.139 4.39777 99.056 2.83309 99.125C1.26841 99.1941 0.189626 100.389 0.423568 101.795Z" fill="#C9A96C" fill-opacity="0.5"/>
<path d="M629.424 524.795C629.658 526.201 631.116 527.284 632.68 527.215C634.245 527.146 635.324 525.951 635.09 524.545C634.856 523.139 633.398 522.056 631.833 522.125C630.268 522.194 629.19 523.389 629.424 524.795Z" fill="#C9A96C"/>
</svg>
