<svg width="1280" height="1515" viewBox="0 0 1280 1515" fill="none" xmlns="http://www.w3.org/2000/svg">
<g opacity="0.8">
<path d="M-216.635 893.854C-226.11 825.705 -104.178 760.796 -59.1116 759.582C114.27 754.911 241.356 883.75 424.288 829.466C569.416 786.402 660.29 568.793 768.538 465.302C954.626 287.381 1158.3 335.839 1318.88 430.797" stroke="#C9A96C" stroke-opacity="0.6" stroke-miterlimit="10" stroke-linecap="round"/>
<path d="M-222.694 901.651C-232.17 833.502 -110.238 768.593 -65.1715 767.379C108.21 762.708 235.296 891.547 418.231 837.264C440.4 830.683 461.309 820.032 481.202 806.334C591.529 730.375 670.77 560.78 762.479 473.103C948.571 295.175 1152.24 343.629 1312.82 438.587" stroke="#C9A96C" stroke-opacity="0.6" stroke-miterlimit="10" stroke-linecap="round"/>
<path d="M-166.148 1002.24C106.564 994.897 241.13 667.173 464.706 534.326C660.141 418.2 807.585 547.988 998.482 508.014C1185.67 468.822 1204.88 274.098 1340.91 168.95" stroke="#C9A96C" stroke-opacity="0.6" stroke-miterlimit="10" stroke-linecap="round"/>
<path d="M-170.599 1012.22C102.113 1004.87 236.678 677.151 460.255 544.304C640.529 437.183 898.881 520.192 898.881 520.192C898.881 520.192 1052.57 518.169 1138.18 433.403C1223.78 348.641 1246.8 248.235 1336.45 178.927" fill="#C9A96C" fill-opacity="0.17"/>
<path d="M-170.599 1012.22C102.113 1004.87 236.678 677.151 460.255 544.304C640.529 437.183 898.881 520.192 898.881 520.192C898.881 520.192 1052.57 518.169 1138.18 433.403C1223.78 348.641 1246.8 248.235 1336.45 178.927" stroke="#C9A96C" stroke-opacity="0.6" stroke-miterlimit="10" stroke-linecap="round"/>
<path d="M51.3418 927.127C47.5859 924.906 46.4227 919.923 48.7436 915.998C51.0646 912.073 55.9912 910.692 59.7471 912.913C63.5036 915.134 64.6668 920.117 62.3458 924.042C60.0249 927.967 55.0983 929.348 51.3418 927.127Z" fill="#C9A96C" stroke="#C9A96C" stroke-opacity="0.6" stroke-miterlimit="10"/>
<path d="M173.219 813.196C169.916 811.243 169.506 805.826 172.302 801.098C175.099 796.369 180.043 794.118 183.345 796.071C186.648 798.024 187.059 803.441 184.262 808.17C181.466 812.899 176.522 815.149 173.219 813.196Z" fill="#C9A96C" stroke="#C9A96C" stroke-opacity="0.6" stroke-miterlimit="10"/>
<path d="M365.981 612.782C362.003 610.43 361.446 604.014 364.732 598.456C368.019 592.898 373.909 590.296 377.887 592.648C381.863 594.999 382.421 601.415 379.134 606.973C375.848 612.531 369.957 615.133 365.981 612.782Z" fill="#C9A96C" stroke="#C9A96C" stroke-opacity="0.6" stroke-miterlimit="10"/>
<path d="M592.096 697.928C588.949 696.067 588.136 691.615 590.285 687.98C592.434 684.346 596.728 682.913 599.874 684.774C603.021 686.634 603.834 691.087 601.685 694.721C599.536 698.356 595.242 699.789 592.096 697.928Z" fill="#C9A96C" stroke="#C9A96C" stroke-opacity="0.6" stroke-miterlimit="10"/>
<path d="M862.981 391.978C858.843 389.53 858.318 382.765 861.803 376.872C865.288 370.98 871.468 368.179 875.607 370.627C879.74 373.071 880.264 379.836 876.779 385.728C873.295 391.621 867.114 394.421 862.981 391.978Z" fill="#C9A96C" stroke="#C9A96C" stroke-opacity="0.6" stroke-miterlimit="10"/>
<path d="M1072.38 486.987C1068.45 484.665 1068.12 477.962 1071.64 472.009C1075.16 466.055 1081.2 463.109 1085.13 465.431C1089.06 467.757 1089.39 474.468 1085.87 480.421C1082.35 486.375 1076.31 489.313 1072.38 486.987Z" fill="#C9A96C" stroke="#C9A96C" stroke-opacity="0.6" stroke-miterlimit="10"/>
<path d="M1176.74 382.808C1173.73 381.029 1173.5 375.862 1176.21 371.277C1178.92 366.684 1183.56 364.408 1186.57 366.186C1189.58 367.965 1189.82 373.125 1187.1 377.717C1184.39 382.302 1179.75 384.586 1176.74 382.808Z" fill="#C9A96C" stroke="#C9A96C" stroke-opacity="0.6" stroke-miterlimit="10"/>
<path d="M-140.59 794.45C-140.59 794.45 -106.542 827.394 -74.4462 869.437C-42.3508 911.48 -12.2085 962.622 -12.2085 962.622" stroke="#C9A96C" stroke-opacity="0.6" stroke-miterlimit="10" stroke-linecap="round"/>
<path d="M44.541 923.105C44.541 923.105 25.3434 866.411 -3.63512 826.259C-32.6137 786.107 -71.3744 762.495 -71.3744 762.495" stroke="#C9A96C" stroke-opacity="0.6" stroke-miterlimit="10" stroke-linecap="round"/>
<path d="M113.536 871.84C113.536 871.84 105.716 839.37 85.1908 813.148C64.6656 786.924 31.4357 766.948 31.4357 766.948" stroke="#C9A96C" stroke-opacity="0.6" stroke-miterlimit="10" stroke-linecap="round"/>
<path d="M358.779 608.525C358.779 608.525 431.577 634.373 481.579 667.553C531.574 700.74 560.807 737.832 558.774 741.269" stroke="#C9A96C" stroke-opacity="0.6" stroke-miterlimit="10" stroke-linecap="round"/>
<path d="M460.232 539.497C460.232 539.497 525.567 553.164 570.773 575.78C615.985 598.39 641.065 629.949 641.065 629.949" stroke="#C9A96C" stroke-opacity="0.6" stroke-miterlimit="10" stroke-linecap="round"/>
<path d="M576.557 491.21C576.557 491.21 613.765 504.499 639.975 522.133C666.185 539.766 685.512 564.177 685.512 564.177" stroke="#C9A96C" stroke-opacity="0.6" stroke-miterlimit="10" stroke-linecap="round"/>
<path d="M869.644 381.676C869.644 381.676 915.51 407.874 945.752 440.925C975.998 473.968 990.604 513.864 990.604 513.864" stroke="#C9A96C" stroke-opacity="0.6" stroke-miterlimit="10" stroke-linecap="round"/>
<path d="M954.988 349.111C954.988 349.111 998.558 370.452 1029.49 402.23C1060.44 434.005 1078.75 476.214 1078.75 476.214" stroke="#C9A96C" stroke-opacity="0.6" stroke-miterlimit="10" stroke-linecap="round"/>
<path d="M222.534 765.807C212.068 752.014 253.234 771.643 283.739 790.137C314.244 808.632 324.806 823.213 344.556 839.786" stroke="#C9A96C" stroke-opacity="0.6" stroke-miterlimit="10" stroke-linecap="round"/>
<path d="M290.8 690.55C290.8 690.55 346.695 711.124 390.385 742.757C434.076 774.391 465.561 817.085 465.561 817.085" stroke="#C9A96C" stroke-opacity="0.6" stroke-miterlimit="10" stroke-linecap="round"/>
<path d="M808.705 431.225C808.705 431.225 839.759 444.272 862.305 466.512C884.846 488.749 898.881 520.19 898.881 520.19" stroke="#C9A96C" stroke-opacity="0.6" stroke-miterlimit="10" stroke-linecap="round"/>
<path d="M1137.3 431.199C1137.3 431.199 1135.47 406.811 1126.2 386.2C1116.92 365.589 1113.42 362.956 1100.2 348.762" stroke="#C9A96C" stroke-opacity="0.6" stroke-miterlimit="10" stroke-linecap="round"/>
<path d="M223.297 768.081C220.859 766.639 220.229 763.196 221.889 760.389C223.548 757.584 226.869 756.477 229.307 757.919C231.744 759.36 232.375 762.804 230.716 765.609C229.056 768.416 225.735 769.522 223.297 768.081Z" fill="#C9A96C" fill-opacity="0.17" stroke="#C9A96C" stroke-opacity="0.6" stroke-miterlimit="10"/>
<path d="M685.512 564.178C683.243 562.836 682.877 559.244 684.707 556.149C686.537 553.054 689.866 551.636 692.135 552.978C694.404 554.32 694.76 557.917 692.93 561.012C691.1 564.106 687.781 565.52 685.512 564.178Z" fill="#C9A96C" fill-opacity="0.17" stroke="#C9A96C" stroke-opacity="0.6" stroke-miterlimit="10"/>
<path d="M849.594 463.47C847.058 461.971 846.666 457.952 848.707 454.5C850.753 451.041 854.459 449.456 856.994 450.955C859.524 452.451 859.927 456.465 857.881 459.925C855.839 463.377 852.123 464.966 849.594 463.47Z" fill="#C9A96C" fill-opacity="0.17" stroke="#C9A96C" stroke-opacity="0.6" stroke-miterlimit="10"/>
<path d="M355.514 736.311C354.652 735.802 354.629 734.248 355.456 732.849C356.288 731.443 357.656 730.723 358.518 731.232C359.379 731.742 359.408 733.288 358.576 734.694C357.748 736.093 356.376 736.821 355.514 736.311Z" fill="#C9A96C" fill-opacity="0.17" stroke="#C9A96C" stroke-opacity="0.6" stroke-miterlimit="10"/>
<path d="M73.9267 808.041C71.7689 806.765 71.5856 803.082 73.5171 799.816C75.4483 796.55 78.7637 794.936 80.9215 796.212C83.0793 797.488 83.2626 801.171 81.3315 804.437C79.3999 807.703 76.0845 809.317 73.9267 808.041Z" fill="#C9A96C" stroke="#C9A96C" stroke-opacity="0.6" stroke-miterlimit="10"/>
<path d="M1254.86 394.807C1254.86 394.807 1260.21 365.193 1260.57 333.009C1260.93 300.825 1256.32 266.055 1256.32 266.055" stroke="#C9A96C" stroke-opacity="0.6" stroke-miterlimit="10" stroke-linecap="round"/>
<path d="M1293.72 427.287C1293.72 427.287 1309.47 365.515 1313.68 309.556C1317.88 253.598 1310.53 203.454 1310.53 203.454C1310.53 203.454 1303.34 189.708 1297.9 195.728" stroke="#C9A96C" stroke-opacity="0.6" stroke-miterlimit="10" stroke-linecap="round"/>
</g>
</svg>
