<svg width="113" height="113" viewBox="0 0 113 113" fill="none" xmlns="http://www.w3.org/2000/svg">
<path fill-rule="evenodd" clip-rule="evenodd" d="M28.5181 54.4973C27.5631 53.651 26.5753 52.773 25.5517 51.8631L14.4572 42.0013C14.2508 41.8178 13.9348 41.8364 13.7513 42.0428C13.5678 42.2492 13.5864 42.5653 13.7928 42.7487L24.8874 52.6105L24.9158 52.6358L24.9158 52.6358C25.8956 53.5067 26.8436 54.3494 27.7624 55.1638C28.0164 54.9395 28.2683 54.7173 28.5181 54.4973ZM31.5449 58.4951C35.8615 62.262 39.5018 65.2796 42.8037 67.5362C47.6884 70.8746 51.8855 72.5856 56.5 72.5856C61.1145 72.5856 65.3116 70.8746 70.1963 67.5362C75.0631 64.2101 80.665 59.2307 88.0844 52.6357L88.1127 52.6105L99.2072 42.7487C99.4136 42.5653 99.4322 42.2492 99.2487 42.0428C99.0653 41.8364 98.7492 41.8178 98.5428 42.0013L87.4483 51.8631C79.9951 58.4882 74.4401 63.4247 69.6321 66.7106C64.8358 69.9886 60.836 71.5856 56.5 71.5856C52.164 71.5856 48.1642 69.9886 43.3679 66.7106C40.1341 64.5005 36.5622 61.5437 32.3022 57.8285C32.0523 58.0481 31.7999 58.2703 31.5449 58.4951Z" fill="#E2B764"/>
<path fill-rule="evenodd" clip-rule="evenodd" d="M81.4551 54.5034C77.1385 50.7365 73.4982 47.7189 70.1963 45.4622C65.3116 42.1239 61.1145 40.4128 56.5 40.4128C51.8855 40.4128 47.6884 42.1239 42.8037 45.4622C37.9369 48.7883 32.3351 53.7678 24.9158 60.3627L24.9158 60.3627L24.8874 60.388L13.7928 70.2498C13.5864 70.4332 13.5678 70.7493 13.7513 70.9557C13.9348 71.1621 14.2508 71.1806 14.4572 70.9972L25.5517 61.1354C33.0049 54.5103 38.56 49.5738 43.3679 46.2879C48.1642 43.0099 52.164 41.4128 56.5 41.4128C60.836 41.4128 64.8358 43.0099 69.6321 46.2879C72.8659 48.498 76.4378 51.4548 80.6978 55.1699C80.9477 54.9504 81.2001 54.7282 81.4551 54.5034ZM85.2376 57.8347C84.9836 58.059 84.7318 58.2812 84.4819 58.5012C85.4369 59.3475 86.4247 60.2255 87.4483 61.1354L98.5428 70.9972C98.7492 71.1806 99.0653 71.1621 99.2487 70.9557C99.4322 70.7493 99.4136 70.4332 99.2072 70.2498L88.1127 60.388L88.0843 60.3628C87.1046 59.4919 86.1565 58.6492 85.2376 57.8347Z" fill="#E2B764"/>
</svg>
