<svg width="110" height="112" viewBox="0 0 110 112" fill="none" xmlns="http://www.w3.org/2000/svg">
<path d="M68.25 56C68.25 63.4644 62.3093 69.5 55 69.5C47.6907 69.5 41.75 63.4644 41.75 56C41.75 48.5356 47.6907 42.5 55 42.5C62.3093 42.5 68.25 48.5356 68.25 56Z" stroke="#E2B764"/>
<path d="M46 65L32 79" stroke="#E2B764" stroke-linejoin="round"/>
<path d="M46 47L30 30" stroke="#E2B764" stroke-linejoin="round"/>
<path d="M86.5833 79.3333C86.5833 84.2204 82.6947 88.1667 77.9167 88.1667C73.1387 88.1667 69.25 84.2204 69.25 79.3333C69.25 74.4463 73.1387 70.5 77.9167 70.5C82.6947 70.5 86.5833 74.4463 86.5833 79.3333Z" stroke="#E2B764"/>
<path d="M100.333 56C100.333 60.887 96.4447 64.8333 91.6667 64.8333C86.8887 64.8333 83 60.887 83 56C83 51.1129 86.8887 47.1667 91.6667 47.1667C96.4447 47.1667 100.333 51.1129 100.333 56Z" stroke="#E2B764"/>
<path d="M83 56H69" stroke="#E2B764" stroke-linejoin="round"/>
<path d="M65 66L72 73" stroke="#E2B764" stroke-linejoin="round"/>
<path d="M100.333 23.3333C100.333 30.7977 94.3927 36.8333 87.0834 36.8333C79.7741 36.8333 73.8334 30.7977 73.8334 23.3333C73.8334 15.869 79.7741 9.83333 87.0834 9.83333C94.3927 9.83333 100.333 15.869 100.333 23.3333Z" stroke="#E2B764"/>
<path d="M77.9166 32.6667L64.1666 46.6667" stroke="#E2B764" stroke-linejoin="round"/>
<path d="M31.5833 23.3333C31.5833 28.2204 27.6947 32.1667 22.9167 32.1667C18.1387 32.1667 14.25 28.2204 14.25 23.3333C14.25 18.4463 18.1387 14.5 22.9167 14.5C27.6947 14.5 31.5833 18.4463 31.5833 23.3333Z" stroke="#E2B764"/>
<path d="M36.1666 88.6667C36.1666 96.131 30.2259 102.167 22.9166 102.167C15.6073 102.167 9.66663 96.131 9.66663 88.6667C9.66663 81.2023 15.6073 75.1667 22.9166 75.1667C30.2259 75.1667 36.1666 81.2023 36.1666 88.6667Z" stroke="#E2B764"/>
</svg>
