<svg width="84" height="99" viewBox="0 0 84 99" fill="none" xmlns="http://www.w3.org/2000/svg">
<path fill-rule="evenodd" clip-rule="evenodd" d="M66.9326 28.2033C67.003 28.0249 67.0741 27.8448 67.1458 27.6632L70.2563 19.7818C70.3575 19.5253 70.2313 19.2345 69.9744 19.1323C69.7175 19.0301 69.4272 19.1552 69.3259 19.4118L66.3832 26.868L66.4317 26.9859C66.6017 27.399 66.7687 27.8047 66.9326 28.2033ZM63.7456 33.6206C61.2134 40.2837 59.9303 44.6606 59.9693 49.6908C60.0194 56.1357 62.223 61.4905 66.5226 71.938L66.5628 72.0357L69.7955 79.891C69.9007 80.1467 70.193 80.2695 70.4483 80.1652C70.7036 80.0609 70.8253 79.7691 70.7201 79.5134L67.4874 71.6581C63.1381 61.0896 61.0177 55.9174 60.9693 49.6867C60.9336 45.0893 62.0349 41.0589 64.296 35.0019C64.1193 34.5543 63.9358 34.0943 63.7456 33.6206Z" fill="#E2B764"/>
<path fill-rule="evenodd" clip-rule="evenodd" d="M67.2186 65.7157C69.7507 59.0527 71.0338 54.6757 70.9948 49.6455C70.9447 43.2006 68.7411 37.8459 64.4415 27.3983L64.4013 27.3006L61.1686 19.4453C61.0634 19.1896 60.7711 19.0669 60.5158 19.1712C60.2605 19.2755 60.1388 19.5673 60.244 19.823L63.4768 27.6783C67.826 38.2468 69.9464 43.419 69.9948 49.6496C70.0305 54.247 68.9292 58.2775 66.6682 64.3344C66.8448 64.782 67.0283 65.2421 67.2186 65.7157ZM64.5809 72.4684L64.5324 72.3504C64.3624 71.9374 64.1954 71.5317 64.0315 71.133C63.9611 71.3115 63.89 71.4915 63.8183 71.6732L60.7078 79.5545C60.6066 79.8111 60.7328 80.1019 60.9897 80.2041C61.2466 80.3062 61.5369 80.1811 61.6382 79.9246L64.5809 72.4684Z" fill="#E2B764"/>
<path d="M72.5 9.5C72.5 14.5545 69.0651 18.5 65 18.5C60.9349 18.5 57.5 14.5545 57.5 9.5C57.5 4.44548 60.9349 0.5 65 0.5C69.0651 0.5 72.5 4.44548 72.5 9.5Z" stroke="#E2B764"/>
<path d="M72.5 89.5C72.5 94.5545 69.0651 98.5 65 98.5C60.9349 98.5 57.5 94.5545 57.5 89.5C57.5 84.4455 60.9349 80.5 65 80.5C69.0651 80.5 72.5 84.4455 72.5 89.5Z" stroke="#E2B764"/>
<path fill-rule="evenodd" clip-rule="evenodd" d="M51.9326 28.2033C52.003 28.0249 52.0741 27.8448 52.1458 27.6632L55.2563 19.7818C55.3575 19.5253 55.2313 19.2345 54.9744 19.1323C54.7175 19.0301 54.4272 19.1552 54.3259 19.4118L51.3832 26.868L51.4317 26.9859C51.6017 27.399 51.7687 27.8047 51.9326 28.2033ZM48.7456 33.6206C46.2134 40.2837 44.9303 44.6606 44.9693 49.6908C45.0194 56.1357 47.223 61.4905 51.5226 71.938L51.5628 72.0357L54.7955 79.891C54.9007 80.1467 55.193 80.2695 55.4483 80.1652C55.7036 80.0609 55.8253 79.7691 55.7201 79.5134L52.4874 71.6581C48.1381 61.0896 46.0177 55.9174 45.9693 49.6867C45.9336 45.0893 47.0349 41.0589 49.296 35.0019C49.1193 34.5543 48.9358 34.0943 48.7456 33.6206Z" fill="#E2B764"/>
<path fill-rule="evenodd" clip-rule="evenodd" d="M52.2186 65.7157C54.7507 59.0527 56.0338 54.6757 55.9948 49.6455C55.9447 43.2006 53.7411 37.8459 49.4415 27.3983L49.4013 27.3006L46.1686 19.4453C46.0634 19.1896 45.7711 19.0669 45.5158 19.1712C45.2605 19.2755 45.1388 19.5673 45.244 19.823L48.4768 27.6783C52.826 38.2468 54.9464 43.419 54.9948 49.6496C55.0305 54.247 53.9292 58.2775 51.6682 64.3344C51.8448 64.782 52.0283 65.2421 52.2186 65.7157ZM49.5809 72.4684L49.5324 72.3504C49.3624 71.9374 49.1954 71.5317 49.0315 71.133C48.9611 71.3115 48.89 71.4915 48.8183 71.6732L45.7078 79.5545C45.6066 79.8111 45.7328 80.1019 45.9897 80.2041C46.2466 80.3062 46.5369 80.1811 46.6382 79.9246L49.5809 72.4684Z" fill="#E2B764"/>
<path d="M57.5 9.5C57.5 14.5545 54.0651 18.5 50 18.5C45.9349 18.5 42.5 14.5545 42.5 9.5C42.5 4.44548 45.9349 0.5 50 0.5C54.0651 0.5 57.5 4.44548 57.5 9.5Z" stroke="#E2B764"/>
<path d="M57.5 89.5C57.5 94.5545 54.0651 98.5 50 98.5C45.9349 98.5 42.5 94.5545 42.5 89.5C42.5 84.4455 45.9349 80.5 50 80.5C54.0651 80.5 57.5 84.4455 57.5 89.5Z" stroke="#E2B764"/>
<path fill-rule="evenodd" clip-rule="evenodd" d="M35.9326 28.2033C36.003 28.0249 36.0741 27.8448 36.1458 27.6632L39.2563 19.7818C39.3575 19.5253 39.2313 19.2345 38.9744 19.1323C38.7175 19.0301 38.4272 19.1552 38.3259 19.4118L35.3832 26.868L35.4317 26.9859C35.6017 27.399 35.7687 27.8047 35.9326 28.2033ZM32.7456 33.6206C30.2134 40.2837 28.9303 44.6606 28.9693 49.6908C29.0194 56.1357 31.223 61.4905 35.5226 71.938L35.5628 72.0357L38.7955 79.891C38.9007 80.1467 39.193 80.2695 39.4483 80.1652C39.7036 80.0609 39.8253 79.7691 39.7201 79.5134L36.4874 71.6581C32.1381 61.0896 30.0177 55.9174 29.9693 49.6867C29.9336 45.0893 31.0349 41.0589 33.296 35.0019C33.1193 34.5543 32.9358 34.0943 32.7456 33.6206Z" fill="#E2B764"/>
<path fill-rule="evenodd" clip-rule="evenodd" d="M36.2186 65.7157C38.7507 59.0527 40.0338 54.6757 39.9948 49.6455C39.9447 43.2006 37.7411 37.8459 33.4415 27.3983L33.4013 27.3006L30.1686 19.4453C30.0634 19.1896 29.7711 19.0669 29.5158 19.1712C29.2605 19.2755 29.1388 19.5673 29.244 19.823L32.4768 27.6783C36.826 38.2468 38.9464 43.419 38.9948 49.6496C39.0305 54.247 37.9292 58.2775 35.6682 64.3344C35.8448 64.782 36.0283 65.2421 36.2186 65.7157ZM33.5809 72.4684L33.5324 72.3504C33.3624 71.9374 33.1954 71.5317 33.0315 71.133C32.9611 71.3115 32.89 71.4915 32.8183 71.6732L29.7078 79.5545C29.6066 79.8111 29.7328 80.1019 29.9897 80.2041C30.2466 80.3062 30.5369 80.1811 30.6382 79.9246L33.5809 72.4684Z" fill="#E2B764"/>
<path d="M41.5 9.5C41.5 14.5545 38.0651 18.5 34 18.5C29.9349 18.5 26.5 14.5545 26.5 9.5C26.5 4.44548 29.9349 0.5 34 0.5C38.0651 0.5 41.5 4.44548 41.5 9.5Z" stroke="#E2B764"/>
<path d="M41.5 89.5C41.5 94.5545 38.0651 98.5 34 98.5C29.9349 98.5 26.5 94.5545 26.5 89.5C26.5 84.4455 29.9349 80.5 34 80.5C38.0651 80.5 41.5 84.4455 41.5 89.5Z" stroke="#E2B764"/>
<path fill-rule="evenodd" clip-rule="evenodd" d="M19.9326 28.2033C20.003 28.0249 20.0741 27.8448 20.1458 27.6632L23.2563 19.7818C23.3575 19.5253 23.2313 19.2345 22.9744 19.1323C22.7175 19.0301 22.4272 19.1552 22.3259 19.4118L19.3832 26.868L19.4317 26.9859C19.6017 27.399 19.7687 27.8047 19.9326 28.2033ZM16.7456 33.6206C14.2134 40.2837 12.9303 44.6606 12.9693 49.6908C13.0194 56.1357 15.223 61.4905 19.5226 71.938L19.5628 72.0357L22.7955 79.891C22.9007 80.1467 23.193 80.2695 23.4483 80.1652C23.7036 80.0609 23.8253 79.7691 23.7201 79.5134L20.4874 71.6581C16.1381 61.0896 14.0177 55.9174 13.9693 49.6867C13.9336 45.0893 15.0349 41.0589 17.296 35.0019C17.1193 34.5543 16.9358 34.0943 16.7456 33.6206Z" fill="#E2B764"/>
<path fill-rule="evenodd" clip-rule="evenodd" d="M20.2186 65.7157C22.7507 59.0527 24.0338 54.6757 23.9948 49.6455C23.9447 43.2006 21.7411 37.8459 17.4415 27.3983L17.4013 27.3006L14.1686 19.4453C14.0634 19.1896 13.7711 19.0669 13.5158 19.1712C13.2605 19.2755 13.1388 19.5673 13.244 19.823L16.4768 27.6783C20.826 38.2468 22.9464 43.419 22.9948 49.6496C23.0305 54.247 21.9292 58.2775 19.6682 64.3344C19.8448 64.782 20.0283 65.2421 20.2186 65.7157ZM17.5809 72.4684L17.5324 72.3504C17.3624 71.9374 17.1954 71.5317 17.0315 71.133C16.9611 71.3115 16.89 71.4915 16.8183 71.6732L13.7078 79.5545C13.6066 79.8111 13.7328 80.1019 13.9897 80.2041C14.2466 80.3062 14.5369 80.1811 14.6382 79.9246L17.5809 72.4684Z" fill="#E2B764"/>
<path d="M25.5 9.5C25.5 14.5545 22.0651 18.5 18 18.5C13.9349 18.5 10.5 14.5545 10.5 9.5C10.5 4.44548 13.9349 0.5 18 0.5C22.0651 0.5 25.5 4.44548 25.5 9.5Z" stroke="#E2B764"/>
<path d="M25.5 89.5C25.5 94.5545 22.0651 98.5 18 98.5C13.9349 98.5 10.5 94.5545 10.5 89.5C10.5 84.4455 13.9349 80.5 18 80.5C22.0651 80.5 25.5 84.4455 25.5 89.5Z" stroke="#E2B764"/>
</svg>
