<svg width="130" height="138" viewBox="0 0 130 138" fill="none" xmlns="http://www.w3.org/2000/svg">
<path d="M54.9454 38.1086C59.2062 26.8328 61.3365 21.195 65 21.195C68.6634 21.195 70.7938 26.8328 75.0546 38.1086L75.253 38.6336C77.6601 45.0039 78.8637 48.189 81.3166 50.125C83.7695 52.0609 86.9895 52.367 93.4295 52.9793L94.5937 53.09C105.134 54.092 110.403 54.593 111.531 58.1521C112.659 61.7113 108.745 65.491 100.918 73.0505L98.3054 75.5734C94.3431 79.4002 92.3619 81.3135 91.4385 83.8213C91.2663 84.289 91.1231 84.7683 91.0098 85.256C90.4029 87.8703 90.983 90.646 92.1433 96.1974L92.5045 97.9254C94.6369 108.128 95.7031 113.229 93.8415 115.429C93.1459 116.252 92.2418 116.844 91.2374 117.134C88.5497 117.913 84.7337 114.612 77.1019 108.011C72.0906 103.676 69.5849 101.508 66.7081 101.021C65.5765 100.829 64.4234 100.829 63.2919 101.021C60.4151 101.508 57.9094 103.676 52.898 108.011C45.2662 114.612 41.4503 117.913 38.7625 117.134C37.7582 116.844 36.8541 116.252 36.1585 115.429C34.2969 113.229 35.3631 108.128 37.4955 97.9254L37.8566 96.1974C39.0169 90.646 39.5971 87.8703 38.9901 85.256C38.8769 84.7683 38.7337 84.289 38.5615 83.8213C37.638 81.3135 35.6569 79.4002 31.6946 75.5734L29.0822 73.0505C21.2549 65.491 17.3412 61.7113 18.4689 58.1521C19.5965 54.593 24.8664 54.092 35.4062 53.09L36.5705 52.9793C43.0104 52.367 46.2304 52.0609 48.6833 50.125C51.1363 48.189 52.3399 45.0039 54.747 38.6336L54.9454 38.1086Z" stroke="#E2B764"/>
</svg>
