<svg width="119" height="122" viewBox="0 0 119 122" fill="none" xmlns="http://www.w3.org/2000/svg">
<path d="M44.625 35.5833L64.4583 35.5833" stroke="#E2B764" stroke-linecap="round"/>
<path d="M44.625 76.25L59.5 76.25" stroke="#E2B764" stroke-linecap="round"/>
<path d="M44.625 55.9167L74.375 55.9167" stroke="#E2B764" stroke-linecap="round"/>
<path d="M94.2083 55.9167V21.25C94.2083 18.4216 94.2083 17.0074 93.3296 16.1287C92.4509 15.25 91.0367 15.25 88.2083 15.25H30.7916C27.9632 15.25 26.549 15.25 25.6703 16.1287C24.7916 17.0074 24.7916 18.4216 24.7916 21.25V100.75C24.7916 103.578 24.7916 104.993 25.6703 105.871C26.549 106.75 27.9632 106.75 30.7916 106.75H59.5" stroke="#E2B764" stroke-linecap="round"/>
<ellipse cx="86.7708" cy="88.9583" rx="12.3958" ry="12.7083" stroke="#E2B764" stroke-linecap="round"/>
<path d="M104.125 106.75L96.6875 99.125" stroke="#E2B764" stroke-linecap="round"/>
</svg>
